# xmcd CD database file
#
# Track frame offsets:
#	150
#	20922
#	37398
#	57656
#	78177
#	94616
#	100422
#	116987
#	133778
#	146363
#	167819
#	186803
#	199418
#	206841
#	229783
#
# Disc length: 3271 seconds
#
# Revision: 0
# Processed by: cddbd v1.5.2PL0 Copyright (c) Steve Scherf et al.
# Submitted via: CDex 1.51
#
DISCID=e70cc50f
DTITLE=Darjeeling - Deers of Dreams
DYEAR=2008
DGENRE=Salsa
TTITLE0=Sweaty Rain
TTITLE1=Sunny Day
TTITLE2=What if we
TTITLE3=Near
TTITLE4=My,Oh,My
TTITLE5=On Time
TTITLE6=Fair Far Away
TTITLE7=WeeDee
TTITLE8=Three Trees
TTITLE9=Indigo Reflections
TTITLE10=Magic of It All
TTITLE11=Charm Melody
TTITLE12=SkyWalker
TTITLE13=Sparkles of Hearts
TTITLE14=Deers of Dreams
EXTD=YEAR: 2008
EXTT0=
EXTT1=
EXTT2=
EXTT3=
EXTT4=
EXTT5=
EXTT6=
EXTT7=
EXTT8=
EXTT9=
EXTT10=
EXTT11=
EXTT12=
EXTT13=
EXTT14=
PLAYORDER=
